<svg width="1191" height="1392" viewBox="0 0 1191 1392" fill="none" xmlns="http://www.w3.org/2000/svg">
<path d="M310.2 1236V363.6C349 355.6 389.4 349.2 431.4 344.4C473.4 339.6 517.4 337.2 563.4 337.2C689.4 337.2 784.2 363 847.8 414.6C911.4 465.8 943.2 547 943.2 658.2C943.2 763 912 842.6 849.6 897C787.6 951 696 978 574.8 978C547.6 978 521.4 977 496.2 975V1236H310.2ZM577.2 832.8C640 832.8 686.4 819.4 716.4 792.6C746.8 765.4 762 721.2 762 660C762 597.6 747 552.4 717 524.4C687.4 496.4 641.8 482.4 580.2 482.4C549.4 482.4 521.4 484.6 496.2 489V828C520.6 831.2 547.6 832.8 577.2 832.8Z" fill="white"/>
<path d="M310.2 1236H297.2V1249H310.2V1236ZM310.2 363.6L307.575 350.868L297.2 353.007V363.6H310.2ZM431.4 344.4L429.924 331.484L429.924 331.484L431.4 344.4ZM847.8 414.6L839.609 424.695L839.629 424.711L839.648 424.726L847.8 414.6ZM849.6 897L858.138 906.803L858.143 906.799L849.6 897ZM496.2 975L497.229 962.041L483.2 960.927V975H496.2ZM496.2 1236V1249H509.2V1236H496.2ZM716.4 792.6L725.061 802.295L725.068 802.288L716.4 792.6ZM717 524.4L708.066 533.844L708.098 533.874L708.13 533.904L717 524.4ZM496.2 489L493.964 476.194L483.2 478.073V489H496.2ZM496.2 828H483.2V839.406L494.51 840.89L496.2 828ZM323.2 1236V363.6H297.2V1236H323.2ZM312.825 376.332C351.221 368.415 391.236 362.075 432.876 357.316L429.924 331.484C387.564 336.325 346.779 342.784 307.575 350.868L312.825 376.332ZM432.876 357.316C474.345 352.577 517.851 350.2 563.4 350.2V324.2C516.949 324.2 472.455 326.623 429.924 331.484L432.876 357.316ZM563.4 350.2C687.943 350.2 779.284 375.752 839.609 424.695L855.991 404.505C789.117 350.248 690.857 324.2 563.4 324.2V350.2ZM839.648 424.726C899.171 472.644 930.2 549.422 930.2 658.2H956.2C956.2 544.578 923.629 458.956 855.952 404.474L839.648 424.726ZM930.2 658.2C930.2 760.318 899.905 835.898 841.057 887.201L858.143 906.799C924.095 849.302 956.2 765.682 956.2 658.2H930.2ZM841.062 887.197C782.332 938.349 694.313 965 574.8 965V991C697.687 991 792.868 963.651 858.138 906.803L841.062 887.197ZM574.8 965C547.918 965 522.062 964.012 497.229 962.041L495.171 987.959C520.738 989.988 547.282 991 574.8 991V965ZM483.2 975V1236H509.2V975H483.2ZM496.2 1223H310.2V1249H496.2V1223ZM577.2 845.8C641.48 845.8 691.651 832.141 725.061 802.295L707.739 782.905C681.149 806.659 638.52 819.8 577.2 819.8V845.8ZM725.068 802.288C759.36 771.606 775 723.038 775 660H749C749 719.362 734.24 759.193 707.732 782.912L725.068 802.288ZM775 660C775 595.86 759.612 546.389 725.87 514.896L708.13 533.904C734.388 558.411 749 599.34 749 660H775ZM725.934 514.956C692.935 483.741 643.461 469.4 580.2 469.4V495.4C640.139 495.4 681.865 509.059 708.066 533.844L725.934 514.956ZM580.2 469.4C548.796 469.4 520.033 471.642 493.964 476.194L498.436 501.806C522.767 497.558 550.004 495.4 580.2 495.4V469.4ZM483.2 489V828H509.2V489H483.2ZM494.51 840.89C519.569 844.176 547.144 845.8 577.2 845.8V819.8C548.056 819.8 521.631 818.224 497.89 815.11L494.51 840.89Z" fill="#D9E4FD"/>
<path d="M782.112 596.222L672.884 673.191L671.994 673.819L672.315 674.86L711.764 802.526L604.809 722.429L603.937 721.776L603.046 722.404L493.818 799.373L536.944 672.901L537.295 671.87L536.423 671.216L429.468 591.119L563.076 593.053L564.166 593.068L564.518 592.037L607.644 465.565L647.092 593.232L647.414 594.273L648.504 594.289L782.112 596.222Z" fill="#CCD6F0" stroke="#C9C9C9" stroke-width="3"/>
</svg>
